<?xml version="1.0" standalone="no"?>
<!DOCTYPE svg PUBLIC "-//W3C//DTD SVG 20010904//EN"
 "http://www.w3.org/TR/2001/REC-SVG-20010904/DTD/svg10.dtd">
<svg version="1.0" xmlns="http://www.w3.org/2000/svg"
 width="1738.000000pt" height="2141.000000pt" viewBox="0 0 1738.000000 2141.000000"
 preserveAspectRatio="xMidYMid meet">

<g transform="translate(0.000000,2141.000000) scale(0.100000,-0.100000)"
fill="#ffffff" stroke="none">
<path d="M10375 19499 c-924 -1044 -1682 -1898 -1685 -1898 -3 0 -735 846
-1628 1880 -893 1033 -1626 1879 -1630 1878 -8 -1 -5415 -5914 -5420 -5927 -1
-5 48 -52 109 -105 l112 -97 36 41 c239 266 1978 2158 1984 2158 4 1 7 -1338
7 -2974 l0 -2976 148 -165 147 -166 5 3314 5 3313 595 649 595 648 5 -4629 5
-4630 145 -161 145 -160 5 4959 5 4959 595 649 595 649 3 -6278 2 -6278 155
-166 155 -166 2 4089 3 4089 530 -584 c292 -321 533 -583 537 -581 4 1 1151
1294 2548 2872 1398 1579 2546 2874 2551 2880 5 5 9 -369 9 -965 l0 -975
-2099 -2365 -2100 -2365 57 -53 c31 -30 82 -76 113 -103 l56 -49 1979 2231
1979 2231 3 -963 c2 -813 0 -966 -12 -983 -8 -12 -701 -795 -1540 -1741 -839
-946 -1526 -1723 -1526 -1726 0 -14 222 -201 229 -193 5 5 644 727 1422 1604
l1414 1595 2 -735 c2 -404 -3 -2231 -11 -4060 -7 -1829 -12 -3326 -11 -3327 2
-4 5659 6285 5663 6295 1 4 -48 52 -109 107 -108 95 -113 98 -128 79 -9 -11
-482 -537 -1051 -1168 l-1035 -1148 -3 3154 -2 3153 -148 170 -147 170 -5
-3496 -5 -3495 -595 -660 -595 -660 -5 4818 -5 4819 -145 165 -145 166 -5
-5154 -5 -5154 -26 -31 c-15 -18 -289 -323 -610 -679 l-584 -647 -2 389 c-2
214 8 3127 21 6474 13 3347 23 6086 22 6086 0 1 -757 -853 -1681 -1897z
m-3340 -448 c791 -916 1439 -1672 1441 -1680 4 -17 -824 -956 -842 -956 -6 0
-473 521 -1037 1157 l-1027 1157 0 1008 c0 855 2 1005 14 993 7 -8 660 -764
1451 -1679z m-535 -1826 c497 -561 909 -1027 917 -1036 12 -14 -36 -72 -383
-463 -327 -369 -399 -445 -409 -434 -7 7 -247 271 -534 587 l-521 574 0 911
c0 765 2 908 14 896 7 -8 419 -474 916 -1035z"/>
<path d="M11550 4211 l0 -1731 220 0 220 0 0 1648 0 1647 -211 80 c-116 44
-215 82 -220 83 -5 2 -9 -731 -9 -1727z"/>
<path d="M12920 3950 l0 -1470 210 0 210 0 0 125 c0 69 3 125 8 125 4 0 18
-16 31 -35 72 -106 218 -204 366 -247 113 -33 338 -33 469 0 357 89 609 359
687 733 18 91 20 126 16 279 -6 199 -23 280 -87 416 -95 205 -235 345 -443
445 -137 65 -218 82 -392 82 -134 0 -159 -2 -238 -26 -144 -44 -279 -124 -356
-212 -17 -19 -33 -35 -36 -35 -2 0 -6 253 -7 561 l-3 562 -180 68 c-99 38
-197 76 -217 84 l-38 15 0 -1470z m1151 24 c136 -40 273 -150 337 -271 185
-351 -5 -779 -383 -858 -289 -61 -559 96 -652 379 -33 103 -37 257 -9 351 42
139 122 254 226 324 142 94 320 122 481 75z"/>
<path d="M8470 4810 l0 -200 220 0 220 0 0 200 0 200 -220 0 -220 0 0 -200z"/>
<path d="M2411 4399 c-161 -31 -313 -124 -399 -244 l-21 -30 -1 113 0 112
-210 0 -210 0 0 -935 0 -935 219 0 219 0 4 568 c4 496 7 575 22 627 41 145
103 230 203 281 54 27 66 29 168 29 94 0 117 -3 163 -24 68 -31 144 -113 171
-186 37 -99 41 -165 41 -737 l0 -558 219 0 220 0 3 588 c4 533 6 592 22 642
64 194 180 280 377 280 180 0 288 -87 346 -281 14 -47 17 -135 20 -641 l4
-588 220 0 219 0 0 618 c0 653 -5 742 -46 873 -47 151 -167 290 -307 359 -103
50 -177 69 -294 77 -260 17 -480 -86 -624 -290 l-47 -68 -33 58 c-51 90 -163
196 -251 238 -123 58 -287 80 -417 54z"/>
<path d="M5553 4395 c-202 -37 -359 -119 -504 -264 -205 -207 -306 -523 -270
-840 51 -432 311 -746 698 -843 128 -32 364 -32 477 0 178 51 305 141 393 278
9 15 12 -7 12 -113 l1 -133 220 0 220 0 0 935 0 935 -220 0 -220 0 0 -132 -1
-133 -22 30 c-169 231 -467 338 -784 280z m326 -406 c214 -34 369 -161 447
-364 35 -92 44 -238 20 -340 -48 -203 -194 -370 -374 -425 -94 -29 -211 -35
-302 -16 -197 41 -341 168 -417 364 -35 90 -43 256 -18 351 78 300 346 479
644 430z"/>
<path d="M8085 4403 c-51 -7 -137 -34 -186 -58 -62 -32 -149 -113 -191 -177
l-33 -53 -3 118 -3 117 -209 0 -210 0 0 -935 0 -935 220 0 220 0 0 508 c0 519
6 636 39 722 57 151 184 235 374 247 l87 6 0 223 0 224 -37 -1 c-21 -1 -51 -4
-68 -6z"/>
<path d="M10095 4403 c-210 -29 -411 -128 -560 -278 -125 -124 -221 -293 -266
-470 -33 -125 -33 -370 -1 -487 81 -297 262 -520 526 -648 160 -77 239 -95
436 -94 137 1 179 4 245 22 265 73 504 271 634 529 17 34 31 65 31 68 0 3
-102 5 -227 4 l-228 0 -45 -62 c-52 -70 -130 -127 -215 -158 -84 -30 -248 -37
-334 -15 -140 36 -263 119 -329 224 -35 55 -72 158 -72 202 l0 30 754 0 754 0
8 68 c9 84 -9 263 -36 361 -68 242 -243 467 -461 590 -165 93 -420 140 -614
114z m330 -401 c75 -28 154 -80 211 -140 47 -49 109 -163 120 -219 l7 -33
-536 0 -535 0 9 43 c23 101 108 221 207 289 25 18 82 44 126 60 76 27 89 28
206 25 97 -2 138 -8 185 -25z"/>
<path d="M8470 3415 l0 -935 220 0 220 0 0 935 0 935 -220 0 -220 0 0 -935z"/>
<path d="M15270 2730 l0 -250 230 0 230 0 0 250 0 250 -230 0 -230 0 0 -250z"/>
<path d="M1981 1199 c-149 -29 -281 -142 -333 -287 -28 -78 -30 -215 -4 -292
83 -242 343 -365 590 -280 93 32 190 111 231 189 l16 31 -50 0 c-47 0 -53 -3
-95 -48 -147 -157 -380 -155 -525 3 -115 127 -126 320 -27 460 93 130 269 182
420 125 42 -16 78 -40 120 -81 56 -55 63 -59 108 -59 l47 0 -20 34 c-34 57
-119 135 -183 166 -95 46 -192 59 -295 39z"/>
<path d="M2950 1203 c-247 -41 -412 -270 -371 -514 34 -209 191 -353 405 -375
82 -8 166 9 253 51 320 157 320 633 0 790 -98 48 -193 64 -287 48z m210 -106
c78 -29 169 -121 199 -202 50 -132 22 -278 -71 -381 -242 -264 -666 -57 -617
302 15 108 89 218 181 266 97 50 201 55 308 15z"/>
<path d="M6951 1199 c-149 -29 -281 -142 -333 -287 -28 -78 -30 -215 -4 -292
83 -242 343 -365 590 -280 93 32 190 111 231 189 l16 31 -50 0 c-47 0 -53 -3
-95 -48 -147 -157 -380 -155 -525 3 -115 127 -126 320 -27 460 93 130 269 182
420 125 42 -16 78 -40 120 -81 56 -55 63 -59 108 -59 l47 0 -20 34 c-34 57
-119 135 -183 166 -95 46 -192 59 -295 39z"/>
<path d="M9560 1203 c-247 -41 -412 -270 -371 -514 34 -209 191 -353 405 -375
82 -8 166 9 253 51 320 157 320 633 0 790 -98 48 -193 64 -287 48z m210 -106
c78 -29 169 -121 199 -202 50 -132 22 -278 -71 -381 -242 -264 -666 -57 -617
302 15 108 89 218 181 266 97 50 201 55 308 15z"/>
<path d="M13265 1200 c-124 -32 -185 -106 -185 -225 0 -118 54 -180 196 -226
185 -60 225 -95 226 -197 0 -58 -37 -113 -94 -141 -103 -50 -217 1 -250 110
-11 38 -13 39 -55 39 -37 0 -43 -3 -43 -21 0 -42 24 -100 56 -138 50 -58 113
-84 204 -85 91 -1 140 15 192 62 60 54 82 104 82 188 0 61 -3 77 -27 113 -35
53 -84 85 -197 126 -167 63 -200 92 -200 177 0 107 119 178 224 134 39 -16 75
-59 83 -98 5 -26 9 -28 54 -28 l49 0 -6 33 c-10 50 -52 115 -92 142 -60 39
-147 53 -217 35z"/>
<path d="M3620 760 l0 -440 45 0 45 0 2 386 3 386 167 -383 167 -384 32 0 32
0 166 383 166 383 3 -385 2 -386 45 0 45 0 0 440 0 440 -67 0 -68 0 -159 -365
c-88 -201 -162 -365 -165 -365 -3 0 -78 165 -165 365 l-160 365 -68 0 -68 0 0
-440z"/>
<path d="M4720 867 c0 -379 3 -400 72 -469 60 -60 117 -82 213 -82 96 0 153
22 213 82 69 69 72 90 72 469 l0 333 -45 0 -44 0 -3 -338 -3 -338 -28 -42
c-69 -105 -246 -114 -315 -15 -39 57 -42 86 -42 414 l0 319 -45 0 -45 0 0
-333z"/>
<path d="M5470 760 l0 -440 45 0 45 0 2 367 3 367 258 -367 258 -367 45 0 44
0 0 440 0 440 -45 0 -45 0 -2 -364 -3 -365 -255 364 -255 365 -47 0 -48 0 0
-440z"/>
<path d="M6360 760 l0 -440 45 0 45 0 0 440 0 440 -45 0 -45 0 0 -440z"/>
<path d="M7817 1193 c-3 -4 -85 -199 -182 -433 -97 -234 -179 -428 -182 -432
-2 -5 20 -8 49 -8 l53 0 50 125 50 125 206 0 206 0 50 -122 50 -123 52 -3 c28
-2 51 -1 51 1 0 3 -80 200 -179 439 l-179 433 -45 3 c-25 2 -47 -1 -50 -5z
m135 -328 l86 -215 -174 0 c-96 0 -174 3 -174 7 0 14 165 423 171 423 3 0 44
-97 91 -215z"/>
<path d="M8370 761 l0 -441 153 0 c83 0 181 5 217 11 141 23 256 109 300 227
83 219 24 465 -136 571 -81 53 -129 63 -341 68 l-193 5 0 -441z m411 330 c148
-56 221 -203 197 -398 -24 -206 -164 -300 -428 -291 l-85 3 -3 345 c-1 190 0
351 3 359 9 23 244 9 316 -18z"/>
<path d="M10220 760 l0 -440 45 0 45 0 2 398 3 397 128 -2 c114 -1 134 -4 175
-25 141 -72 133 -313 -11 -367 -16 -6 -59 -14 -98 -17 -38 -4 -69 -8 -69 -10
0 -5 223 -349 235 -362 7 -8 29 -12 58 -10 l46 3 -105 160 c-116 176 -113 161
-26 184 161 44 218 292 101 434 -62 76 -146 96 -386 97 l-143 0 0 -440z"/>
<path d="M11207 1193 c-3 -4 -85 -199 -182 -433 -97 -234 -179 -428 -182 -432
-2 -5 20 -8 49 -8 l53 0 50 125 50 125 206 0 206 0 50 -122 50 -123 52 -3 c28
-2 51 -1 51 1 0 3 -80 200 -179 439 l-179 433 -45 3 c-25 2 -47 -1 -50 -5z
m135 -328 l86 -215 -174 0 c-96 0 -174 3 -174 7 0 14 165 423 171 423 3 0 44
-97 91 -215z"/>
<path d="M12016 1013 c40 -103 118 -300 172 -438 l99 -250 47 0 47 0 173 435
172 435 -44 3 c-25 2 -48 0 -53 -5 -4 -4 -71 -173 -150 -376 -78 -202 -144
-365 -146 -363 -2 2 -68 170 -147 372 l-142 369 -51 3 -51 3 74 -188z"/>
<path d="M12830 760 l0 -440 45 0 45 0 0 440 0 440 -45 0 -45 0 0 -440z"/>
<path d="M13740 867 c0 -379 3 -400 72 -469 60 -60 117 -82 213 -82 96 0 153
22 213 82 69 69 72 90 72 469 l0 333 -45 0 -44 0 -3 -338 -3 -338 -28 -42
c-69 -105 -246 -114 -315 -15 -39 57 -42 86 -42 414 l0 319 -45 0 -45 0 0
-333z"/>
<path d="M14737 1193 c-3 -4 -85 -199 -182 -433 -97 -234 -179 -428 -182 -432
-2 -5 20 -8 49 -8 l53 0 50 125 50 125 206 0 206 0 50 -122 50 -123 52 -3 c28
-2 51 -1 51 1 0 3 -80 200 -179 439 l-179 433 -45 3 c-25 2 -47 -1 -50 -5z
m135 -328 l86 -215 -174 0 c-96 0 -174 3 -174 7 0 14 165 423 171 423 3 0 44
-97 91 -215z"/>
<path d="M15300 760 l0 -440 215 0 215 0 0 40 0 40 -167 2 -168 3 -3 398 -2
397 -45 0 -45 0 0 -440z"/>
</g>
</svg>
